PathFileType	4	(X/Y/Z)	C:\Users\WrightLab\Desktop\Jo\P2_Trial36.trc
DataRate	CameraRate	NumFrames	NumMarkers	Units	OrigDataRate	OrigDataStartFrame	OrigNumFrames
100.00	100.00	       14	19	mm	100.00	161	       641
Frame#	Time	Headset_Front			Headset_Back			Headset_Left			Headset_Right			Left_Shoulder			Right_Shoulder			Sternum			C7			Left Elbow			Right Elbow			Left Wrist			Right Wrist			Left ASIS			Right ASIS			S2			Left Knee			Right Knee			Left Ankle			Right Ankle			
		X1	Y1	Z1	X2	Y2	Z2	X3	Y3	Z3	X4	Y4	Z4	X5	Y5	Z5	X6	Y6	Z6	X7	Y7	Z7	X8	Y8	Z8	X9	Y9	Z9	X10	Y10	Z10	X11	Y11	Z11	X12	Y12	Z12	X13	Y13	Z13	X14	Y14	Z14	X15	Y15	Z15	X16	Y16	Z16	X17	Y17	Z17	X18	Y18	Z18	X19	Y19	Z19	

161	1.600	-783.23022	1393.82019	-327.29532	-807.72864	1652.04041	-492.62457	-687.51074	1536.08276	-448.81049	-894.45386	1482.78967	-366.04083	-665.93323	1407.73364	-507.93558	-981.12427	1402.30115	-591.56946	-844.06335	1285.66785	-489.90646	-805.45264	1402.56311	-659.70294	-566.32507	1133.42236	-498.00189	-1049.19092	1083.28955	-713.27832	-652.65216	1202.96155	-397.14465	-1073.21484	828.01410	-728.11713	-783.62384	998.19891	-435.73361	-909.81964	975.74048	-469.00836	-758.44855	908.78851	-695.77325	-593.42847	426.39764	-572.70728	-983.11292	517.91809	-520.41644	-510.80930	105.60236	-713.33905	-1055.95203	144.36716	-333.02359	
162	1.610	-785.89410	1395.92651	-319.61453	-811.60846	1653.58875	-486.13733	-690.89825	1537.41736	-443.48495	-897.73798	1485.18115	-358.68954	-670.19226	1409.88000	-502.57104	-985.96289	1403.65833	-581.69861	-846.92572	1286.93188	-480.34177	-811.25946	1403.45508	-651.58472	-570.44214	1135.24268	-491.88388	-1056.66833	1083.77075	-700.13934	-655.46564	1204.87207	-394.42514	-1080.78162	828.62701	-712.09491	-786.52179	997.95331	-429.54807	-913.03033	977.90485	-460.17664	-764.68103	910.06860	-688.29181	-605.32574	427.04318	-559.73029	-992.81128	520.77411	-512.54730	-516.39026	112.11831	-705.68524	-1055.18530	137.54555	-330.52094	
163	1.620	-787.65051	1397.58435	-314.06210	-815.16321	1655.38843	-479.68008	-694.49261	1538.77039	-437.97189	-900.71973	1487.79431	-350.57462	-674.31018	1411.37134	-495.32733	-991.05292	1405.08215	-572.59064	-851.48541	1288.78821	-472.59058	-816.94080	1404.40979	-643.75470	-575.71631	1137.12939	-486.79620	-1063.91418	1084.58362	-687.43781	-661.35406	1204.74939	-401.18106	-1089.65332	829.84271	-695.81537	-788.29889	999.38354	-420.96442	-916.61224	980.77185	-452.42084	-771.33698	910.85803	-678.54004	-616.90057	426.52023	-545.73053	-1002.96143	522.52612	-504.63281	-522.33618	117.56448	-696.41571	-1053.94226	129.65457	-334.90411	
164	1.630	-789.21289	1399.61975	-308.14474	-818.53442	1656.93225	-472.59488	-697.65796	1540.21741	-431.47137	-903.53326	1490.52649	-342.07144	-678.35382	1413.50903	-489.12726	-995.95557	1406.42529	-563.28339	-855.39832	1290.50989	-464.49451	-822.62903	1405.82507	-636.48438	-577.82166	1138.01843	-480.99994	-1071.31116	1084.76501	-673.64313				-1097.72168	830.12567	-678.48627	-790.74207	1000.64868	-415.41660	-919.45605	981.32666	-444.13333	-777.24176	912.25269	-672.45947	-628.58215	425.95441	-533.36255	-1013.10406	523.50922	-496.87604	-530.12170	122.60666	-687.55695	-1051.02795	121.77716	-335.43176	
165	1.640	-790.91516	1402.17358	-299.76465	-821.76196	1658.30249	-465.87943	-700.60956	1541.67029	-426.04572	-904.55981	1492.55542	-332.84515	-682.40375	1415.25293	-483.40607	-1000.44922	1407.00610	-552.76733	-859.20056	1292.23523	-456.87134	-828.36206	1407.04883	-628.89948	-582.04175	1139.49316	-475.53424	-1078.48792	1085.19141	-660.36957	-665.96777	1210.40564	-376.99875	-1105.02905	830.33191	-661.09180	-792.70844	1001.83704	-409.31635	-922.42938	982.00970	-435.74115	-783.18274	913.52429	-666.10095	-639.53442	424.17044	-519.73932	-1023.54419	523.28510	-488.83887	-536.50952	130.32922	-677.91095	-1050.77417	116.36076	-335.06281	
166	1.650	-792.77710	1404.91553	-289.19946	-824.79407	1659.84155	-459.13052	-703.05865	1542.26978	-421.05661	-905.63556	1494.96045	-323.53717	-686.15948	1416.84631	-477.64978	-1005.10919	1407.95129	-542.92078	-862.35065	1294.17151	-448.98715	-834.10419	1408.54468	-621.20190	-585.83344	1140.99243	-471.20551	-1085.59216	1085.54346	-646.48126	-668.46973	1211.96716	-371.39880	-1114.15015	831.53735	-644.67328	-794.76910	1002.81042	-401.59302	-924.72711	982.34253	-427.33615	-788.89288	915.11401	-660.31104	-648.94885	425.01563	-504.57898	-1033.98389	522.46417	-480.88602	-547.00000	137.02463	-665.22571	-1047.90137	110.35262	-337.50034	
167	1.660	-793.27411	1406.76453	-283.09653	-827.74530	1661.20557	-452.74094	-706.23206	1543.82385	-415.00275	-906.66187	1497.56958	-314.23969	-689.79950	1418.22168	-471.71683	-1009.40704	1408.96045	-532.93030	-864.43292	1295.26819	-440.22366	-839.84308	1409.95752	-613.37933	-590.11591	1142.34229	-467.12820	-1092.62427	1085.76587	-632.17883	-671.63513	1213.62024	-365.75540	-1122.43079	832.21985	-627.47125	-796.38110	1004.00781	-394.81134	-927.18060	982.46893	-418.95648	-794.68799	916.42365	-654.12415	-655.35840	427.33444	-490.08160	-1044.37549	521.73340	-472.21878	-555.11060	144.39627	-654.37378	-1044.13660	105.59200	-340.53046	
168	1.670	-794.21472	1408.80273	-275.84747	-830.58734	1662.32739	-445.62454	-708.57294	1544.89844	-409.65793	-909.11914	1500.36377	-306.06949	-693.14044	1419.95728	-466.14996	-1013.98657	1410.11365	-522.38995	-866.78271	1296.41272	-430.38516	-845.47150	1411.48096	-605.49170	-593.33844	1143.93250	-462.67999	-1100.47949	1087.26794	-619.43890	-674.24542	1214.67065	-360.55853	-1127.70593	830.81104	-608.95020	-796.72522	1003.78046	-389.96201	-928.72089	980.78510	-410.06714	-800.08130	918.30280	-648.31775	-660.83197	430.31122	-472.63037	-1054.86108	523.64313	-464.49042	-563.44220	152.49260	-640.08209	-1042.79980	101.97824	-341.34671	
169	1.680	-794.71484	1410.52063	-269.75586	-833.29413	1663.64258	-438.92853	-710.90643	1546.03223	-403.90424	-909.54041	1501.98047	-296.53708	-696.38464	1421.04907	-460.94421	-1018.26642	1411.20203	-512.23132	-870.11707	1293.93323	-431.74911	-851.04584	1413.27588	-597.85620	-597.23004	1144.83777	-458.50830	-1105.90149	1087.02075	-604.39172	-678.42365	1213.53174	-366.53140	-1135.54504	832.00787	-591.18018	-798.53815	1004.73328	-381.77142	-931.03961	981.68628	-402.01926	-805.53937	919.98431	-642.25903	-666.22711	433.29272	-455.59857	-1063.37146	525.51520	-454.85455	-573.48114	158.17595	-626.91650	-1039.56409	100.36358	-345.37363	
170	1.690	-795.58600	1412.60486	-262.32260	-836.12219	1664.56750	-431.99213	-713.44196	1547.16187	-399.04630	-910.60254	1504.06104	-288.14914	-700.11145	1422.95544	-455.08862	-1022.20013	1411.75256	-501.12549	-873.08081	1296.33789	-422.87277	-856.65912	1414.83154	-590.33789	-600.60950	1145.60352	-454.46774	-1113.24170	1088.16724	-590.37280	-679.64508	1213.29089	-363.13464	-1144.75098	834.68500	-573.55145	-799.21655	1005.67084	-375.37772	-932.06812	980.21991	-393.22116	-810.32465	922.17609	-636.42468	-669.86243	436.51566	-438.29379	-1069.34680	528.09576	-445.94226	-581.81458	165.02280	-611.20331	-1037.20923	101.74335	-343.83804	
171	1.700	-796.50433	1414.47803	-254.76266	-838.68298	1665.49548	-424.92648	-715.78064	1547.55127	-393.48007	-910.90552	1505.10559	-279.08524	-703.71387	1424.25452	-449.09247	-1025.94714	1412.76770	-490.79596	-875.65594	1295.86365	-416.01306	-862.22351	1416.42761	-582.97095	-602.73602	1146.81396	-450.80618	-1119.33057	1089.10901	-576.21613	-680.95715	1217.01550	-345.90042	-1150.02405	834.32861	-554.81482	-800.99426	1007.07922	-371.62500	-933.66565	979.90540	-385.75565	-814.61597	924.42719	-630.47351	-674.71533	437.64609	-422.78967	-1073.13147	529.84894	-437.58774	-590.30634	170.54733	-596.64825	-1035.88013	101.74207	-346.56812	
172	1.710	-797.53326	1416.04456	-246.19440	-841.35895	1666.19580	-417.65549	-718.35492	1548.15076	-387.16931	-912.81830	1506.90796	-270.60864	-707.41846	1425.43689	-444.20248	-1030.04419	1414.15112	-480.22479	-878.03882	1297.18311	-407.79291	-867.75305	1418.08582	-575.08716	-605.75781	1148.89124	-445.00699	-1125.23743	1090.08337	-561.59332	-683.70239	1216.46790	-351.40198	-1156.90820	835.88702	-536.96674	-801.85040	1009.27441	-362.68619	-935.14026	980.66687	-378.66281	-818.44043	926.63043	-624.52631	-679.95898	440.51544	-403.99557	-1075.91724	531.13678	-430.01749	-599.35358	174.76546	-582.59723	-1035.20605	102.46739	-347.16333	
173	1.720	-797.47375	1415.76831	-241.39600	-843.89117	1667.08276	-410.34085	-720.72168	1548.55811	-380.87170	-911.90094	1507.74817	-261.86844	-710.31836	1426.87134	-438.76511	-1034.02014	1415.31311	-470.27167	-879.77954	1298.13184	-402.05524	-873.07208	1419.73413	-567.68286	-608.12610	1149.90552	-441.46631	-1130.68054	1090.91479	-547.16016				-1164.10449	838.02527	-517.70203	-803.73444	1011.24353	-357.12973	-936.09204	981.73114	-370.99213	-821.56677	928.88708	-618.24268	-683.40210	444.52307	-387.27219	-1078.04407	532.93457	-424.11743	-606.40277	179.70316	-563.37787	-1035.07275	103.28353	-344.73688	
174	1.730	-796.99286	1415.79297	-226.64809	-846.37903	1667.99072	-403.03143	-722.90430	1549.22888	-375.67203	-914.38062	1509.49487	-253.86490	-714.13666	1428.39319	-434.03043	-1037.17883	1416.17053	-459.93304	-882.66699	1299.65515	-391.09842	-878.39410	1421.27136	-559.94318	-610.46808	1152.56775	-437.50430	-1136.68237	1092.31763	-532.23279				-1170.10327	839.18640	-499.09589	-806.07159	1013.22589	-351.77548	-937.44263	982.80719	-364.30222	-823.76239	929.52661	-611.73340	-687.64038	449.84305	-368.80743	-1079.87732	533.40332	-418.50482	-616.15851	183.67159	-546.28925	-1033.87244	102.13676	-348.79059	
